Simulation
nRows=40
nColumns=15
endheader
time  TH_x TH_y TH_z SC_y  SC_z  SC_x  AC_y  AC_z  AC_x  GH_y  GH_z  GH_yy  EL_x  PS_y
0.0  0.000000  0.000000  0.000000  -40.97484877243665  6.293857566463187  5.290427962726946  38.50369591107884  -1.9869197779395225  -7.885883218401485  104.1289854171243  6.805249015202427  -72.60449817460146  22.644637796738955  120.000000
0.05745  0.000000  0.000000  0.000000  -39.098001566747605  5.070810088754641  4.183163905743197  39.62498877805888  -2.434914001462047  -6.62257012999201  56.10624685029367  6.309457403484168  -28.12448697044359  22.067592313763434  120.000000
0.1149  0.000000  0.000000  0.000000  -37.22877098333866  3.7540666356035506  2.9062759845813404  40.89687807533422  -3.009957539157771  -5.229469231134983  22.730989635631936  9.342307269750217  1.746773099611405  21.66937546433568  120.000000
0.17235  0.000000  0.000000  0.000000  -35.518223807101315  2.2557841375572845  1.5057271791195141  42.348195454152496  -3.8055922251571226  -3.629642087743937  6.628007458694464  13.908399877954487  14.417722851873371  21.527594492073174  120.000000
0.2298  0.000000  0.000000  0.000000  -34.10428491233255  0.4838708954880669  0.07366297266636676  44.060722695713565  -4.944105490261406  -1.7668476664136437  -2.6714883480089426  19.30230778933476  20.409269699175876  21.666466862714223  120.000000
0.28725  0.000000  0.000000  0.000000  -33.06542299624458  -1.5916697877301504  -1.3097967531444479  46.053369532582465  -6.482911454652217  0.3341386574130828  -9.05005866279497  25.38937671178896  23.606624990268237  22.01806432968668  120.000000
0.3447  0.000000  0.000000  0.000000  -32.417976987824126  -3.852427434628246  -2.544355485860665  48.17037019676492  -8.402177107320222  2.5916869509089002  -13.897292894421634  32.00228674628424  25.386842596741257  22.467057567169547  120.000000
0.40215  0.000000  0.000000  0.000000  -32.10717125767179  -6.0750876624830585  -3.524281534596059  50.17399065533827  -10.575897338473379  4.884304885388991  -17.714646406968956  38.83643757383838  26.245820953119686  22.884702082988376  120.000000
0.4596  0.000000  0.000000  0.000000  -32.03135427257607  -7.977468462252959  -4.267660930444542  51.90774533952345  -12.6879134829439  7.127454408455573  -20.623172528181467  45.48899639824573  26.329544381849665  23.1723619850677  120.000000
0.51705  0.000000  0.000000  0.000000  -32.136091435230966  -9.287362166340516  -4.873622086774042  53.32874207740618  -14.314645470276856  9.213653006316541  -22.640060308864328  51.59583084807291  25.68948897891929  23.295667229532057  120.000000
0.5745  0.000000  0.000000  0.000000  -32.36334553436213  -9.88020638511918  -5.403153720203239  54.4917522379992  -15.111170282332795  10.99470588141129  -23.86400738264641  56.94047162513378  24.42813920333715  23.238457360952797  120.000000
0.63195  0.000000  0.000000  0.000000  -32.6845013865004  -9.758664746134597  -5.900686496664551  55.525207912150954  -14.890058254996532  12.445484100058081  -24.488859705764867  61.42799559727532  22.723708569634827  23.006663289331296  120.000000
0.6894  0.000000  0.000000  0.000000  -33.15996059138238  -8.999502617274313  -6.410180639663856  56.57735981043416  -13.610886595497233  13.673461022481847  -24.764338813366997  65.0469149645269  20.837976091589685  22.638866033086938  120.000000
0.74685  0.000000  0.000000  0.000000  -33.92242536010897  -7.724997553777086  -6.9727327945380235  57.75473015802006  -11.316906455973573  14.821703137329575  -24.87163414662442  67.80117202829722  18.99934262992882  22.183231799858202  120.000000
0.8043  0.000000  0.000000  0.000000  -35.088656751826846  -6.052309201306839  -7.615976296253171  59.03547587559599  -8.097101671295022  15.954798313641339  -24.814980236321695  69.63739779781231  17.232926510423205  21.68704691372608  120.000000
0.86175  0.000000  0.000000  0.000000  -36.64039440385502  -4.115490196427901  -8.320012112038524  60.28297050689577  -4.097153605662356  17.05024582216045  -24.512049858223932  70.51897886844685  15.41995149385114  21.178416028456695  120.000000
0.9192  0.000000  0.000000  0.000000  -38.41613559009838  -2.086686432702853  -9.004546431570743  61.34118690711503  0.4602321639967248  18.064308956198563  -23.931174280596654  70.55110307016993  13.463511021832664  20.677093383281864  120.000000
0.97665  0.000000  0.000000  0.000000  -40.205498510562094  -0.15433151624259564  -9.578423975277822  62.10185661339014  5.258091410824244  18.971396534572854  -23.09934300886069  70.03872299609543  11.328890056930408  20.192888738278835  120.000000
1.0341  0.000000  0.000000  0.000000  -41.84879904177024  1.5442370544216215  -9.960860243877091  62.52910158153549  9.931757152122843  19.77448831013428  -22.072023155014648  69.36206269646439  9.05210643325328  19.733444292598993  120.000000
1.09155  0.000000  0.000000  0.000000  -43.25667840194821  2.996007754122864  -10.047664257099019  62.64103291529599  14.169065435979208  20.485140465343058  -20.948909382536286  68.74460633376316  6.769095468529742  19.302828024728136  120.000000
1.149  0.000000  0.000000  0.000000  -44.408926637133845  4.273529449686521  -9.722709512312754  62.49207527353987  17.753792100598996  21.11664109376651  -19.835516928579107  68.23875091668965  4.664240007156993  18.90018210829554  120.000000
1.20645  0.000000  0.000000  0.000000  -45.33718481493085  5.446087492055712  -8.924287574935237  62.16011867465566  20.559007258078378  21.678710174859614  -18.794912771939142  67.84974455699516  2.8838996449000485  18.523891779547757  120.000000
1.2639  0.000000  0.000000  0.000000  -46.09962985422156  6.545141638495856  -7.677207161458876  61.73370604697383  22.558755663825806  22.165243442669485  -17.854075097555075  67.5673407131035  1.4985514299683313  18.17315807307609  120.000000
1.32135  0.000000  0.000000  0.000000  -46.753660752101  7.557012484844998  -6.094497215706337  61.29703793686801  23.823397420379322  22.558467960622867  -17.019954480090256  67.36874897696632  0.5002401112895615  17.851303045552463  120.000000
1.3788  0.000000  0.000000  0.000000  -47.32814687074858  8.434792060521799  -4.361575037431911  60.92131101805156  24.48938215487713  22.834491526751002  -16.29479770743927  67.2302671789253  -0.18202690400840071  17.564122514265105  120.000000
1.43625  0.000000  0.000000  0.000000  -47.81608149149302  9.120509369730229  -2.700748986411513  60.656394762811495  24.7175186628806  22.974060160736627  -15.686009801675254  67.13257358685972  -0.6487768584265258  17.319717952007085  120.000000
1.4937  0.000000  0.000000  0.000000  -48.18558428133795  9.56696779488447  -1.3319337973816932  60.532884273416705  24.654824857234868  22.968454415741625  -15.209020189489964  67.06215820325225  -0.9993825560602205  17.125464998411655  120.000000
1.55115  0.000000  0.000000  0.000000  -48.400253659789534  9.748671970193344  -0.4379156783497266  60.566119348765476  24.408635340565205  22.824807975856693  -14.883786501777736  67.01110503291349  -1.3067766123873024  16.987549036413757  120.000000
1.6086  0.000000  0.000000  0.000000  -48.43754334470793  9.662760065650456  -0.14023712993568552  60.760647526948006  24.035382882591662  22.569181637052118  -14.72914420576692  66.97578695528306  -1.6081723136559571  16.909401446698336  120.000000
1.66605  0.000000  0.000000  0.000000  -48.2980297849596  9.325760610579325  -0.48530757382246975  61.108730101940196  23.538957922597096  22.248481172601334  -14.756539463148176  66.95550835117133  -1.9049321673339894  16.89071632444179  120.000000
1.7235  0.000000  0.000000  0.000000  -48.00227276061773  8.76891165748026  -1.4391622221692835  61.586207826403516  22.876677387275173  21.928383415828083  -14.965189259946053  66.95113743670551  -2.1724048892546404  16.92491743794418  120.000000
1.78095  0.000000  0.000000  0.000000  -47.574951142452925  8.034077876753539  -2.8930324912967165  62.14939816351835  21.97095228706737  21.682239846824743  -15.342984020753962  66.96447042109259  -2.371623175441446  16.996495906593317  120.000000
1.8384  0.000000  0.000000  0.000000  -47.02621168670694  7.165971584065431  -4.67953615439978  62.73734736683635  20.72508244265589  21.573716381672476  -15.871641168948694  66.99787383858062  -2.4636073393459488  17.08337818369412  120.000000
1.89585  0.000000  0.000000  0.000000  -46.335011255290134  6.200843368948649  -6.5980563494729285  63.28092003177047  19.04422187560486  21.634193475057188  -16.535806337229666  67.05427961741002  -2.421882003976905  17.16112328755531  120.000000
1.9533  0.000000  0.000000  0.000000  -45.451551933066725  5.15069830454937  -8.44406147342715  63.714966791125065  16.857109350436943  21.84691578960052  -17.327622066687542  67.13654727237457  -2.2450865096727703  17.210400933012508  120.000000
2.01075  0.000000  0.000000  0.000000  -44.31682330298118  3.9926997622799436  -10.03502461243231  63.986467598463385  14.132395668880834  22.142058042549916  -18.246209653739943  67.24531736346972  -1.9630720896753509  17.220317561325068  120.000000
2.0682  0.000000  0.000000  0.000000  -42.898503068195495  2.6685813142482164  -11.227901568998265  64.0570063394603  10.883972463939497  22.406368693186856  -19.285240606721796  67.38178636240124  -1.6385889358875263  17.187098723978572  120.000000
2.1256500000000003  0.000000  0.000000  0.000000  -41.22720491953509  1.1106286326936812  -11.919426865402428  63.89237834166431  7.174622015280856  22.50465063359412  -20.417069112326157  67.53413810778476  -1.3507768333269565  17.106852274707933  120.000000
2.1831  0.000000  0.000000  0.000000  -39.4103596343257  -0.7224605054022578  -12.05215440139188  63.47096620109586  3.1042803218623054  22.305311856029878  -21.552410772831692  67.68685878918998  -1.1806273356247365  16.97518054377022  120.000000
2.24055  0.000000  0.000000  0.000000  -37.627755531873824  -2.771159241378942  -11.597384705942604  62.78859100410443  -1.1702307223276764  21.713287794076486  -22.538659213014103  67.71602584319177  -1.1651768565452016  16.790173895567015  120.000000
